<svg width="69" height="89" viewBox="0 0 69 89" fill="none" xmlns="http://www.w3.org/2000/svg">
<rect width="69" height="89" fill="#F5F5F5"/>
<g clip-path="url(#clip0_203_265033)">
<rect width="1440" height="5846" transform="translate(-1143 -1096)" fill="white"/>
<path d="M-128.229 40.8298C-143.567 -16.4102 -109.598 -75.2459 -52.3578 -90.5833L-1.43261 -104.229C55.8074 -119.566 114.643 -85.5973 129.98 -28.3573L164.814 101.643C183.92 172.946 141.605 246.236 70.3028 265.342C-0.999835 284.447 -74.2901 242.133 -93.3955 170.831L-128.229 40.8298Z" fill="#FAFAF8"/>
<rect x="-11.9111" y="44.2363" width="44.3727" height="375.544" rx="22.1863" transform="rotate(-15 -11.9111 44.2363)" fill="#FAFAF8"/>
<path d="M48.5508 11.0385H59.6646M13.8202 76.9577C13.8202 82.3115 10.7639 86.6615 6.59618 88H20.7663M13.8202 76.9577C13.8202 82.3115 16.8765 86.6615 21.0441 88M13.8202 76.9577V66.25M59.6646 25.7615V1H48.5508V25.7615C43.5496 28.4385 40.2155 34.1269 40.2155 41.1538V88H68V41.1538C68 34.4615 64.6659 28.4385 59.6646 25.7615ZM40.2155 47.8462H59.6646V71.2692H40.2155V47.8462ZM5.48479 34.4615H21.8777L25.2118 44.8346C27.1567 50.8577 25.7675 57.8846 21.8777 62.2346C17.1543 67.5885 9.93032 67.5885 5.20695 62.2346C1.31711 57.8846 -0.0721134 50.8577 1.8728 44.8346L5.48479 34.4615Z" stroke="black" stroke-width="2" stroke-miterlimit="10" stroke-linecap="round" stroke-linejoin="round"/>
</g>
<defs>
<clipPath id="clip0_203_265033">
<rect width="1440" height="5846" fill="white" transform="translate(-1143 -1096)"/>
</clipPath>
</defs>
</svg>
