<svg width="499" height="37" viewBox="0 0 499 37" fill="none" xmlns="http://www.w3.org/2000/svg">
<path d="M11.0475 0.599998C13.7075 0.599998 15.9615 1.524 17.8095 3.372C19.6575 5.192 20.5815 7.418 20.5815 10.05C20.5815 12.654 19.6575 14.88 17.8095 16.728C15.9615 18.576 13.7075 19.5 11.0475 19.5H5.04148V30H0.211484V0.599998H5.04148H11.0475ZM11.0475 14.964C12.3635 14.964 13.4695 14.488 14.3655 13.536C15.2895 12.584 15.7515 11.422 15.7515 10.05C15.7515 8.678 15.2895 7.516 14.3655 6.564C13.4695 5.612 12.3635 5.136 11.0475 5.136H5.04148V14.964H11.0475ZM29.6098 25.38H41.3698V30H24.7798V0.599998H29.6098V25.38ZM63.6915 30L61.6755 24.078H49.4535L47.4795 30H42.2295L52.6875 0.599998H58.4835L68.8995 30H63.6915ZM51.0075 19.542H60.1215L55.5855 6.102L51.0075 19.542ZM87.368 0.599998V5.22H79.934V30H75.104V5.22H67.628V0.599998H79.934H87.368ZM107.948 5.22H95.768V14.082H107.528V18.702H95.768V30H90.938V0.599998H95.768H107.948V5.22ZM136.508 26.136C133.568 29.076 129.97 30.546 125.714 30.546C121.458 30.546 117.846 29.076 114.878 26.136C111.938 23.168 110.468 19.556 110.468 15.3C110.468 11.044 111.938 7.446 114.878 4.506C117.846 1.538 121.458 0.0539975 125.714 0.0539975C129.97 0.0539975 133.568 1.538 136.508 4.506C139.476 7.446 140.96 11.044 140.96 15.3C140.96 19.556 139.476 23.168 136.508 26.136ZM118.28 22.86C120.296 24.848 122.774 25.842 125.714 25.842C128.654 25.842 131.118 24.848 133.106 22.86C135.122 20.844 136.13 18.324 136.13 15.3C136.13 12.276 135.122 9.77 133.106 7.782C131.118 5.766 128.654 4.758 125.714 4.758C122.774 4.758 120.296 5.766 118.28 7.782C116.292 9.77 115.298 12.276 115.298 15.3C115.298 18.324 116.292 20.844 118.28 22.86ZM163.762 30L154.774 19.29H150.196V30H145.366V0.599998H150.196H156.286C158.918 0.599998 161.144 1.524 162.964 3.372C164.812 5.192 165.736 7.418 165.736 10.05C165.736 11.898 165.19 13.606 164.098 15.174C163.034 16.714 161.648 17.848 159.94 18.576L169.516 30H163.762ZM150.196 5.136V14.964H156.286C157.574 14.964 158.666 14.488 159.562 13.536C160.458 12.584 160.906 11.422 160.906 10.05C160.906 8.678 160.458 7.516 159.562 6.564C158.666 5.612 157.574 5.136 156.286 5.136H150.196ZM199.961 0.599998V30H195.131V8.58L187.781 25.17H184.001L176.651 8.58V30H171.821V0.599998H176.651H177.449L185.891 19.584L194.333 0.599998H199.961ZM224.555 30L222.539 24.078H210.317L208.343 30H203.093L213.551 0.599998H219.347L229.763 30H224.555ZM211.871 19.542H220.985L216.449 6.102L211.871 19.542ZM267.963 26.136C265.023 29.076 261.425 30.546 257.169 30.546C252.913 30.546 249.301 29.076 246.333 26.136C243.393 23.168 241.923 19.556 241.923 15.3C241.923 11.044 243.393 7.446 246.333 4.506C249.301 1.538 252.913 0.0539975 257.169 0.0539975C261.425 0.0539975 265.023 1.538 267.963 4.506C270.931 7.446 272.415 11.044 272.415 15.3C272.415 19.556 270.931 23.168 267.963 26.136ZM249.735 22.86C251.751 24.848 254.229 25.842 257.169 25.842C260.109 25.842 262.573 24.848 264.561 22.86C266.577 20.844 267.585 18.324 267.585 15.3C267.585 12.276 266.577 9.77 264.561 7.782C262.573 5.766 260.109 4.758 257.169 4.758C254.229 4.758 251.751 5.766 249.735 7.782C247.747 9.77 246.753 12.276 246.753 15.3C246.753 18.324 247.747 20.844 249.735 22.86ZM287.951 11.94C290.667 11.94 292.921 12.794 294.713 14.502C296.505 16.21 297.401 18.366 297.401 20.97C297.401 23.574 296.505 25.73 294.713 27.438C292.921 29.146 290.667 30 287.951 30H278.501H276.821V0.599998H281.651H294.881V5.22H281.651V11.94H287.951ZM287.951 25.464C289.267 25.464 290.359 25.058 291.227 24.246C292.123 23.406 292.571 22.314 292.571 20.97C292.571 19.626 292.123 18.548 291.227 17.736C290.359 16.896 289.267 16.476 287.951 16.476H281.651V25.464H287.951ZM304.528 30V5.22H297.178V0.599998H309.358V11.1H315.364C318.024 11.1 320.278 12.024 322.126 13.872C323.974 15.72 324.898 17.946 324.898 20.55C324.898 23.154 323.974 25.38 322.126 27.228C320.278 29.076 318.024 30 315.364 30H304.528ZM309.358 25.464H315.364C316.68 25.464 317.786 24.988 318.682 24.036C319.606 23.084 320.068 21.922 320.068 20.55C320.068 19.178 319.606 18.016 318.682 17.064C317.786 16.112 316.68 15.636 315.364 15.636H309.358V25.464ZM333.946 25.38H346.336V30H330.796H329.116V0.599998H333.946H346.126V5.22H333.946V12.864H345.076V17.4H333.946V25.38ZM371.731 25.464H374.881V30V36.048H370.051V30H353.251V36.048H348.421V28.488V25.464H351.067C352.831 23.224 353.713 19.822 353.713 15.258V0.599998H371.731V25.464ZM356.359 25.464H366.901V5.136H358.543V15.342C358.543 19.738 357.815 23.112 356.359 25.464ZM395.243 30V10.05L382.853 30H379.073V0.599998H383.903V20.55L396.293 0.599998H400.073V30H395.243ZM421.898 0.599998H426.728V30H421.898V17.19H410.768V30H405.938V0.599998H410.768V12.57H421.898V0.599998ZM453.178 0.599998V30H448.348V19.29H444.904L435.958 30H430.078L439.57 18.87C437.582 18.31 435.958 17.218 434.698 15.594C433.438 13.942 432.808 12.094 432.808 10.05C432.808 7.418 433.732 5.192 435.58 3.372C437.456 1.524 439.724 0.599998 442.384 0.599998H453.178ZM442.468 14.964H448.348V5.136H442.468C441.124 5.136 439.976 5.612 439.024 6.564C438.1 7.516 437.638 8.678 437.638 10.05C437.638 11.422 438.114 12.584 439.066 13.536C440.018 14.488 441.152 14.964 442.468 14.964ZM463.883 25.38H476.273V30H460.733H459.053V0.599998H463.883H476.063V5.22H463.883V12.864H475.013V17.4H463.883V25.38ZM498.099 0.599998V5.22H490.665V30H485.835V5.22H478.359V0.599998H490.665H498.099Z" fill="black"/>
</svg>
